<svg xmlns="http://www.w3.org/2000/svg" viewBox="0 0 1179 318.2"><path d="M211.5 212.9c-5.6 0-10.1-4.6-10.1-10.1V88.7c0-5.6 4.6-10.1 10.1-10.1 5.6 0 10.1 4.6 10.1 10.1v114.1c0 5.5-4.5 10.1-10.1 10.1zM950.3 202.9c0 5.6-4.5 10.1-10.1 10.1s-10.1-4.5-10.1-10.1V89.1c0-5.6 4.5-10.1 10.1-10.1s10.1 4.5 10.1 10.1v113.8zM129.3 192.7H38.9c-.4 0-.7 0-1-.1-10.7-1.4-12.4-10.2-12.8-15.3V88.5c0-5.6-4.6-10.1-10.1-10.1-5.6 0-10.1 4.6-10.1 10.1v112.6c0 .1-.4 10.7 9.9 11.7.4 0 .7.1 1.1.1h113.5c5.5 0 10-4.5 10-10-.1-5.7-4.6-10.2-10.1-10.2zM489.8 78.5c-5.6 0-10.1 4.6-10.1 10.1v114c0 5.6 4.6 10.1 10.1 10.1 5.6 0 10.1-4.6 10.1-10.1v-114c0-5.5-4.6-10.1-10.1-10.1zM604.4 78.5c-5.6 0-10.1 4.6-10.1 10.1v33.6c-.2 4-1.8 13.3-13 13.3h-48.4c-5.6 0-10.1 4.6-10.1 10.1 0 5.6 4.6 10.1 10.1 10.1h49.8c9.9.7 11.4 9.4 11.6 13.2v33.7c0 5.6 4.6 10.1 10.1 10.1 5.6 0 10.1-4.6 10.1-10.1v-114c.1-5.5-4.5-10.1-10.1-10.1zM407.4 135c-5.7 0-10.4 4.7-10.4 10.4v37.5c-.6 4.2-3 10.1-12.4 9.9h-34.9c-7 .1-37.9-1.3-45.5-35.7 0 0-8.1-31.3 18.4-50 .1-.1.2-.2.3-.2 1.2-1 10.3-8.1 28.2-8.1h51.1c5.6 0 10.1-4.6 10.1-10.1 0-5.6-4.6-10.1-10.1-10.1h-53.5-.1c-10.3.1-38.2 2.8-55.7 29.5-2.3 3.5-4 7.4-5.3 11.4-4.8 14.6-11.9 48.2 12.7 75.1l.1.1c1 1 18.6 18.9 47 18.6h62.3c4.4 0 8.1-3.6 8.1-8.1v-59.6c.1-5.9-4.6-10.6-10.4-10.6z"/><g class="st1"><path d="M4.8 244.2h4.6v58.2H4.8zM30.1 246.6c-1.9 0-3.5 1.6-3.5 3.4 0 1.9 1.6 3.5 3.5 3.5s3.5-1.6 3.5-3.5c-.2-2-1.8-3.4-3.5-3.4zM27.7 262.3h4.6v40.1h-4.6zM85.5 270.4c-3.5-5.7-9.6-9-16.7-9-11.6 0-20.8 9.1-20.8 20.9 0 11.6 9.1 20.9 20.8 20.9 7.1 0 13-3.2 16.7-9v5.9c0 8.8-5.9 14.4-15.3 14.4-7.4 0-12.4-2.5-14.9-7.5l-.1-.3-4.1 2.4.1.3c3.1 6.2 9.9 9.6 18.9 9.6C82 319 90 311.5 90 300.1v-37.9h-4.6l.1 8.2zm0 11.8c0 9.3-7.2 16.4-16.4 16.4s-16.4-7.2-16.4-16.4c0-9.1 7.2-16.4 16.4-16.4 9.1.1 16.4 7.3 16.4 16.4zM126.6 261.4c-6 0-10.8 2.5-13.7 7.4v-22.3h-4.7v55.9h4.6v-21.1c0-9.6 5-15.3 13.4-15.3 7.1 0 11.2 4.3 11.2 11.6v24.8h4.7v-24.8c.1-9.8-6.1-16.2-15.5-16.2zM168.5 251.1l-4.7 1.3v9.7h-8.7v4.6h8.7v25.2c0 3.8 1 6.6 3.1 8.4 1.8 1.5 4.4 2.4 8 2.4 1.6 0 3.2-.1 5.2-.4h.3V298h-.4c-4.7.4-8.1.6-9.9-1-1-.9-1.5-2.5-1.5-5v-25.2h11.6v-4.6h-11.8l.1-11.1zM241.7 261.4c-11.8 0-21.1 9.1-21.1 20.9 0 11.6 9.3 20.9 21.1 20.9s20.9-9.1 20.9-20.9c.2-11.7-9.1-20.9-20.9-20.9zm16.4 20.8c0 9.3-7.2 16.4-16.2 16.4-9.1 0-16.4-7.2-16.4-16.4 0-9.1 7.2-16.4 16.4-16.4 8.9.1 16.2 7.3 16.2 16.4zM283.7 248.9c-2.8 2.5-4.3 6.5-4.3 11.5v1.8h-6.8v4.6h6.8v35.5h4.7v-35.5h11.8v-4.6h-11.7v-1.8c0-3.8.9-6.5 2.8-8.3 1.9-1.8 4.7-2.5 8.5-2.1h.3v-4.4h-.3c-5-.4-9 .8-11.8 3.3zM344.9 251.1l-4.7 1.3v9.7h-8.7v4.6h8.7v25.2c0 3.8 1 6.6 3.1 8.4 1.8 1.5 4.4 2.4 8 2.4 1.6 0 3.2-.1 5.2-.4h.3V298h-.6c-4.7.4-8.1.6-9.9-1-1-.9-1.5-2.5-1.5-5v-25.2h11.8v-4.6h-11.8v-11.1h.1zM390.4 261.4c-6 0-10.8 2.5-13.7 7.4v-22.3h-4.6v55.9h4.6v-21.1c0-9.6 5-15.3 13.4-15.3 7.1 0 11.2 4.3 11.2 11.6v24.8h4.7v-24.8c0-9.8-6-16.2-15.6-16.2zM441.3 261.4c-12.1 0-20.8 8.8-20.8 20.9 0 12.1 8.8 20.9 21.1 20.9 7.7 0 14-3.2 17.4-9.1l.1-.3-4.1-2.4-.1.3c-2.4 4.4-7.4 6.9-13.3 6.9-8.7 0-15.2-5.6-16.4-14h35.7v-.3-.9-1c0-5.5-1.9-10.8-5.3-14.6-3.6-4.1-8.6-6.4-14.3-6.4zm-16 18.8c.9-8.4 7.4-14.3 15.9-14.3 8.1 0 14 5.7 15 14.3h-30.9zM511.1 248.9c-2.8 2.5-4.3 6.5-4.3 11.5v1.8H500v4.6h6.8v35.5h4.7v-35.5h11.8v-4.6h-11.8v-1.8c0-3.8.9-6.5 2.8-8.3 1.9-1.8 4.7-2.5 8.5-2.1h.3v-4.4h-.3c-4.9-.4-8.9.8-11.7 3.3zM563.7 283.4c0 9.6-5 15.3-13.4 15.3-7.1 0-11.2-4.3-11.2-11.6v-24.8h-4.7v24.8c0 9.7 6.2 16.1 15.6 16.1 6 0 10.8-2.5 13.7-7.4v6.5h4.6v-40.1h-4.6v21.2zM595.6 251.1l-4.7 1.3v9.7h-8.7v4.6h8.7v25.2c0 3.8 1 6.6 3.1 8.4 1.8 1.5 4.4 2.4 8 2.4 1.6 0 3.2-.1 5.2-.4h.3V298h-.4c-4.7.4-8.1.6-9.9-1-1-.9-1.5-2.5-1.5-5v-25.2h11.8v-4.6h-11.8v-11.1h-.1zM651.1 283.4c0 9.6-5 15.3-13.4 15.3-7.1 0-11.2-4.3-11.2-11.6v-24.8h-4.7v24.8c0 9.7 6.2 16.1 15.6 16.1 6 0 10.8-2.5 13.7-7.4v6.5h4.6v-40.1h-4.6v21.2zM678.6 268.8v-6.6H674v40.1h4.6V280c0-10.3 6.6-13.9 12.8-13.9h.3v-4.4h-.3c-5.9 0-10.2 2.4-12.8 7.1zM735.9 267.8c-3.7-4.1-8.8-6.5-14.4-6.5-12.1 0-20.8 8.8-20.8 20.9s8.8 20.9 21.1 20.9c7.7 0 14-3.2 17.4-9.1l.1-.3-4.1-2.4-.1.3c-2.4 4.4-7.4 6.9-13.3 6.9-8.7 0-15.2-5.6-16.4-14h35.7v-.3-.9-1c.1-5.4-1.8-10.5-5.2-14.5zm-30.4 12.4c.9-8.4 7.4-14.3 15.9-14.3 8.1 0 14 5.7 15 14.3h-30.9z"/></g><path d="M782.3 78.5H678.9c-5.8 0-10.5 4.5-10.5 10.1s4.7 10.1 10.5 10.1h18.6c4.8 0 8.8.1 9.8.2 4.6.6 12.7 3.3 12.7 14.6v89.2c0 5.6 4.7 10.1 10.5 10.1s10.5-4.5 10.5-10.1v-89.2c0-11.3 8.1-14 12.7-14.6 1-.1 5-.1 9.8-.2h18.6c5.8 0 10.5-4.5 10.5-10.1.2-5.6-4.5-10.1-10.3-10.1zM1103.8 78.7h-102.4c-5.7 0-10.4 4.5-10.4 10.1s4.7 10.1 10.4 10.1h18.5c4.7 0 8.7.1 9.7.2 4.6.6 12.6 3.3 12.6 14.5v89c0 5.6 4.7 10.1 10.4 10.1s10.4-4.5 10.4-10.1v-89c0-11.3 8-13.9 12.6-14.5 1-.1 5-.1 9.7-.2h18.5c5.7 0 10.4-4.5 10.4-10.1s-4.7-10.1-10.4-10.1z"/><path d="M1177.4 155.9c0-5.7-3.9-10.2-9.3-10.6-5.3-.4-10.4 3.1-11.4 8.7-.1.4-.5 4.3-.5 5-1.7 21.6-7.2 41.8-16.5 59.7-6.9 13.5-15.8 25.6-26.2 36-28 28.1-67.4 44.7-111.4 43.1-12.7-.4-25-2.3-36.8-5.7-48.3-13.7-85.9-50.8-100.6-98v-.1c-.1-.4-.2-.8-.4-1.2-4.2-13.9-6.5-28.7-6.3-44 0-1 0-1.9.1-2.9 1.1-42.2 21.2-79.3 51.9-104.5 16.7-13.9 36.4-24.1 57.6-29.2 1.9-.5 4.6-1.1 8.1-1.7 7.6-1.3 15.3-2.1 23.2-2.1h1.1c4.1 0 8.4.2 12.9.7h.1c3.7.4 7.1.9 10.9 1.7h.3c.8 0 1.5-.6 1.5-1.5 0-.6-.3-1.1-.8-1.4s-2.7-1.1-2.7-1.1c-8.9-3.1-22.9-3.7-22.9-3.7-33.5-1.9-62.4 12.1-62.4 12.1-53.2 24.8-89.8 77.5-89.8 138.6 0 86.7 72.3 158.6 163.3 158.7 93.3 0 163.6-66.4 167.1-153.6-.1.2-.1-2.2-.1-3z"/></svg>